<svg xmlns="http://www.w3.org/2000/svg" viewBox="0 0 24 24" fill="currentColor">
  <path d="M12 0C5.37 0 0 5.37 0 12a12 12 0 008.21 11.44c.6.1.82-.26.82-.58v-2.25c-3.34.73-4.03-1.61-4.03-1.61a3.18 3.18 0 00-1.34-1.76c-1.1-.76.08-.75.08-.75a2.52 2.52 0 011.84 1.23 2.54 2.54 0 003.47.99 2.54 2.54 0 01.76-1.6c-2.67-.3-5.48-1.33-5.48-5.92a4.63 4.63 0 011.23-3.21 4.3 4.3 0 01.12-3.17s1.01-.32 3.3 1.22a11.4 11.4 0 016 0c2.28-1.54 3.29-1.22 3.29-1.22a4.3 4.3 0 01.12 3.17 4.63 4.63 0 011.23 3.21c0 4.6-2.81 5.61-5.49 5.91a2.85 2.85 0 01.81 2.21v3.27c0 .32.21.69.82.58A12 12 0 0024 12c0-6.63-5.37-12-12-12z"/>
</svg>
